<?xml version="1.0" standalone="no"?>
<!DOCTYPE svg PUBLIC "-//W3C//DTD SVG 20010904//EN"
 "http://www.w3.org/TR/2001/REC-SVG-20010904/DTD/svg10.dtd">
<svg version="1.0" xmlns="http://www.w3.org/2000/svg"
 width="1280.000000pt" height="916.000000pt" viewBox="0 0 1280.000000 916.000000"
 preserveAspectRatio="xMidYMid meet">
<metadata>
Created by potrace 1.15, written by Peter Selinger 2001-2017
</metadata>
<g transform="translate(0.000000,916.000000) scale(0.100000,-0.100000)"
fill="#000000" stroke="none">
<path d="M11200 9150 c-264 -33 -524 -114 -775 -243 -124 -64 -294 -167 -295
-178 0 -4 45 -23 101 -43 133 -48 180 -48 245 -1 147 106 201 134 413 207 64
22 141 52 171 66 51 23 69 25 238 30 255 6 397 -18 547 -96 100 -52 195 -152
361 -382 175 -241 245 -352 286 -452 l32 -78 94 -31 c52 -16 114 -32 138 -36
l44 -6 -27 59 c-66 145 -193 342 -372 574 -192 251 -367 401 -594 510 -143 69
-263 100 -412 105 -66 2 -154 0 -195 -5z"/>
<path d="M1331 8949 c-262 -30 -507 -161 -744 -396 -192 -190 -506 -640 -576
-826 -10 -26 -9 -26 22 -21 60 11 227 64 237 77 6 6 33 58 60 114 62 129 164
280 413 611 153 203 394 291 767 279 140 -5 173 -9 215 -27 28 -12 124 -49
215 -81 180 -65 258 -104 357 -179 62 -47 69 -50 127 -50 46 0 84 9 154 36 50
19 92 37 92 40 0 2 -31 24 -68 48 -343 220 -702 346 -1066 376 -71 5 -129 9
-130 9 -1 -1 -34 -5 -75 -10z"/>
<path d="M11300 8584 c-29 -47 -87 -127 -129 -177 -42 -51 -180 -220 -306
-377 -285 -353 -429 -522 -588 -687 -68 -70 -145 -159 -172 -198 -71 -100
-194 -225 -304 -308 -53 -39 -138 -111 -190 -160 -290 -274 -775 -589 -1141
-742 -525 -220 -887 -334 -1215 -385 -71 -11 -162 -26 -200 -35 -39 -8 -132
-19 -205 -25 -174 -13 -702 -3 -831 16 -341 50 -778 173 -981 275 -55 28 -175
97 -267 153 -91 57 -290 176 -441 266 -676 401 -1156 720 -1540 1025 -63 50
-141 110 -174 134 -32 24 -139 121 -238 216 -99 95 -212 197 -252 226 -47 35
-91 79 -126 128 -75 102 -207 240 -289 300 -82 61 -197 117 -271 133 -53 11
-57 10 -126 -25 -68 -34 -153 -96 -225 -164 l-36 -35 52 -121 c29 -67 73 -178
97 -247 46 -127 62 -180 191 -610 137 -455 576 -1837 637 -2005 10 -27 51
-142 90 -255 368 -1050 745 -1884 1183 -2620 177 -298 423 -663 511 -760 23
-25 111 -130 196 -235 185 -226 272 -316 445 -459 537 -446 940 -666 1395
-761 63 -13 149 -31 190 -41 127 -30 400 -24 705 14 138 18 269 32 290 32 22
0 93 11 157 25 346 71 674 240 960 491 111 98 391 396 484 516 140 179 294
414 534 813 237 395 317 548 486 935 58 135 118 268 132 295 119 236 690 1602
892 2135 382 1007 587 1670 857 2780 10 42 16 113 17 200 0 118 -3 142 -23
192 -31 79 -77 143 -132 184 l-46 34 -53 -86z"/>
</g>
</svg>
